<?xml version="1.0" standalone="no"?>
<!DOCTYPE svg PUBLIC "-//W3C//DTD SVG 20010904//EN"
 "http://www.w3.org/TR/2001/REC-SVG-20010904/DTD/svg10.dtd">
<svg version="1.0" xmlns="http://www.w3.org/2000/svg"
 width="400.000000pt" height="400.000000pt" viewBox="0 0 400.000000 400.000000"
 preserveAspectRatio="xMidYMid meet">
<metadata>
Created by potrace 1.14, written by Peter Selinger 2001-2017
</metadata>
<g transform="translate(0.000000,400.000000) scale(0.100000,-0.100000)"
fill="#000000" stroke="none">
<path d="M2829 3808 c-6 -85 -4 -139 7 -166 7 -18 13 -35 12 -39 -2 -11 44
-53 53 -47 5 3 9 0 9 -6 0 -7 8 -9 20 -5 13 4 20 2 20 -6 0 -9 5 -8 18 3 9 8
27 13 40 12 12 0 22 2 22 6 0 11 109 9 116 -1 3 -5 14 -9 25 -9 10 0 19 -6 19
-14 0 -8 10 -22 22 -30 12 -9 19 -16 14 -16 -5 0 -2 -8 5 -17 10 -11 10 -14 2
-9 -7 4 -13 2 -13 -3 0 -6 5 -11 10 -11 6 0 10 -5 10 -11 0 -5 -4 -8 -8 -5 -4
3 -7 -8 -6 -23 1 -23 -2 -28 -16 -24 -18 5 -20 29 -5 53 3 6 1 10 -5 10 -6 0
-9 4 -5 9 3 5 1 12 -5 16 -6 4 -8 10 -5 14 2 5 -7 13 -20 19 -14 7 -25 15 -25
20 0 10 -55 8 -87 -2 -13 -4 -23 -13 -23 -21 0 -7 -5 -15 -10 -17 -6 -2 -12
-14 -15 -26 -12 -65 -13 -65 -59 -20 -24 24 -46 50 -49 58 -4 8 -6 -7 -5 -35
2 -39 8 -56 30 -80 15 -16 28 -34 28 -38 0 -5 5 -5 10 -2 6 3 10 -1 10 -9 0
-9 4 -15 9 -14 5 2 10 0 11 -4 2 -9 81 -88 89 -88 3 0 17 -16 31 -34 14 -19
28 -32 33 -29 4 2 7 -1 7 -6 0 -6 7 -11 15 -11 8 0 15 6 15 13 0 8 3 8 8 2 6
-9 15 -11 39 -6 3 0 -4 9 -15 20 -12 10 -22 24 -22 30 0 7 -5 9 -11 5 -7 -4
-10 -1 -7 7 3 9 21 14 49 15 57 2 109 14 109 25 0 5 5 9 11 9 17 0 41 29 33
41 -4 8 -3 9 4 5 8 -5 13 1 14 16 1 13 2 30 3 38 0 8 4 21 8 28 5 6 5 12 0 12
-4 0 -8 10 -9 23 -1 44 -13 92 -24 95 -5 2 -8 8 -4 13 3 5 0 9 -6 9 -6 0 -8 5
-5 10 3 6 3 10 -2 10 -4 0 -22 13 -39 30 -18 16 -35 26 -38 23 -3 -4 -6 -2 -6
4 0 13 -49 35 -61 28 -5 -4 -9 -2 -9 3 0 9 -65 28 -82 24 -5 -1 -8 3 -8 9 0 5
-4 7 -10 4 -5 -3 -10 -2 -10 3 0 5 -10 8 -22 7 -13 -1 -29 2 -36 8 -7 5 -15 7
-18 4 -3 -3 -25 0 -49 8 -24 7 -47 10 -50 6 -4 -3 -5 -1 -3 5 3 10 -66 84 -78
84 -2 0 -4 -6 -5 -12z"/>
<path d="M1758 3672 c-16 -2 -28 -8 -28 -14 0 -5 -7 -8 -15 -4 -8 3 -15 1 -15
-5 0 -6 -4 -7 -10 -4 -5 3 -10 1 -10 -5 0 -6 -5 -8 -11 -5 -6 4 -17 -1 -24
-11 -8 -11 -15 -16 -15 -13 0 4 -18 -11 -40 -33 -23 -21 -38 -43 -35 -48 3 -6
2 -10 -3 -10 -5 0 -20 -21 -35 -47 -19 -36 -22 -51 -14 -59 12 -10 42 -24 52
-23 3 0 13 -7 22 -16 8 -9 28 -19 44 -22 16 -3 29 -10 29 -15 0 -6 7 -8 15 -4
8 3 15 2 15 -2 0 -4 8 -8 18 -9 9 0 36 -3 60 -5 24 -2 45 0 49 4 3 5 11 7 18
4 8 -3 19 2 25 10 7 8 8 14 3 14 -5 0 -19 9 -31 20 -12 12 -22 18 -22 14 0 -4
-9 1 -20 11 -18 16 -34 21 -77 24 -7 1 -10 8 -6 17 3 9 8 11 12 6 9 -15 104 9
137 34 29 21 29 22 -32 28 -17 1 -35 6 -41 9 -6 4 -13 3 -17 -1 -4 -4 -11 -7
-16 -7 -5 0 -23 -11 -40 -24 -22 -16 -29 -26 -20 -31 8 -5 7 -9 -4 -13 -9 -4
-16 -2 -16 3 0 6 -3 9 -7 9 -5 -1 -23 -1 -42 0 l-34 1 24 19 c13 10 34 21 47
25 12 4 20 11 17 16 -3 5 4 12 16 15 25 8 113 95 104 103 -2 3 0 11 7 19 15
18 0 30 -34 25z"/>
<path d="M2109 3669 c-10 -6 -11 -11 -3 -16 6 -5 14 -18 18 -29 10 -32 94
-114 116 -114 6 0 10 -3 10 -8 0 -4 14 -13 30 -21 17 -7 29 -18 27 -24 -5 -16
-83 -15 -80 0 8 38 -117 65 -167 37 l-25 -14 22 -6 c13 -3 20 -11 16 -17 -4
-6 0 -8 8 -5 8 3 25 1 39 -5 32 -13 73 -16 81 -4 3 5 9 1 12 -8 4 -9 3 -14 -1
-11 -5 3 -20 -1 -35 -9 -14 -7 -28 -11 -31 -8 -3 3 -12 -1 -20 -8 -29 -27 -41
-35 -58 -42 -10 -3 -18 -11 -18 -17 0 -6 4 -9 9 -5 5 3 12 1 16 -5 4 -6 10 -8
15 -5 5 3 11 1 14 -3 3 -5 15 -8 28 -6 13 1 38 3 56 3 18 1 31 5 28 9 -2 4 3
8 12 9 31 2 48 8 85 31 21 12 41 22 45 22 13 1 57 40 45 40 -7 0 -13 7 -13 16
0 31 -97 164 -119 164 -6 0 -11 3 -11 8 0 8 -56 33 -95 42 -5 1 -17 6 -26 10
-8 5 -22 4 -30 -1z"/>
<path d="M2358 3605 c-2 -19 0 -35 5 -35 4 0 5 -4 2 -10 -3 -5 -1 -10 5 -10 6
0 8 -4 5 -10 -3 -5 -1 -10 4 -10 6 0 11 -7 11 -15 0 -8 5 -15 10 -15 6 0 10
-5 10 -10 0 -11 85 -100 95 -100 12 0 35 -29 28 -33 -5 -3 -36 -4 -71 -3 -34
0 -62 -2 -62 -5 0 -4 -14 -9 -31 -13 -17 -3 -28 -10 -24 -16 3 -6 -1 -7 -10
-4 -9 4 -24 -3 -36 -17 -15 -17 -17 -24 -7 -27 7 -2 20 -6 28 -9 30 -12 106
-10 138 3 17 7 32 10 32 7 0 -3 7 0 15 7 8 7 22 10 30 6 11 -4 14 -2 9 6 -5 7
-1 9 12 6 11 -3 26 2 34 10 16 17 22 42 11 42 -4 0 -8 11 -9 24 -1 14 -11 41
-22 61 -11 19 -20 40 -20 45 0 5 -22 32 -50 60 -27 28 -50 48 -50 44 0 -3 -13
4 -30 16 -16 12 -30 18 -30 13 0 -4 -7 0 -14 10 -12 16 -14 14 -18 -18z"/>
<path d="M1515 3620 c-4 -6 -11 -8 -16 -5 -5 4 -9 1 -9 -4 0 -6 -7 -11 -15
-11 -8 0 -15 -5 -15 -11 0 -5 -5 -7 -10 -4 -6 3 -13 -1 -16 -9 -3 -9 -10 -16
-15 -16 -4 0 -22 -13 -39 -30 -17 -16 -28 -30 -24 -30 4 0 1 -8 -7 -17 -23
-29 -36 -56 -44 -91 -4 -20 -11 -30 -18 -26 -9 5 -9 3 0 -6 8 -9 9 -19 2 -32
-8 -14 -6 -18 8 -18 10 0 29 -8 42 -17 14 -9 21 -11 17 -5 -4 7 -2 12 3 12 6
0 11 -5 11 -11 0 -5 4 -8 9 -4 5 3 12 1 16 -5 4 -6 10 -8 15 -5 5 3 11 1 15
-5 4 -6 11 -8 16 -5 5 4 9 0 9 -7 0 -9 3 -9 10 2 5 8 10 10 10 4 0 -9 101 -12
120 -4 3 1 9 2 13 1 5 -1 6 3 2 9 -3 5 -1 10 4 10 6 0 11 5 11 10 0 6 -7 10
-15 10 -8 0 -15 5 -15 10 0 5 -3 10 -7 9 -14 -2 -53 13 -53 20 0 8 -54 14
-122 14 -34 -1 -48 3 -48 13 0 12 9 17 30 16 3 0 11 6 18 14 7 8 11 14 8 14
-2 0 17 21 44 47 27 26 47 50 44 54 -2 4 3 9 11 13 8 3 12 12 9 21 -4 8 -1 15
7 15 7 0 9 3 6 6 -3 4 -2 15 4 25 7 14 6 19 -3 19 -9 0 -9 3 2 10 13 8 13 10
-2 10 -9 0 -20 -5 -23 -10z"/>
<path d="M595 3596 c-42 -19 -74 -52 -93 -95 -16 -38 -23 -169 -10 -177 4 -3
8 -16 8 -30 0 -13 5 -24 11 -24 5 0 8 -4 4 -9 -3 -5 6 -18 20 -29 13 -11 21
-22 18 -26 -3 -3 1 -6 11 -6 9 0 19 -7 22 -15 4 -8 11 -15 16 -15 6 0 23 -13
38 -28 14 -15 41 -34 58 -41 18 -8 32 -18 32 -23 0 -6 -8 -4 -17 3 -16 13 -17
12 -5 -3 8 -10 20 -14 29 -11 10 4 14 2 9 -5 -3 -6 -1 -14 5 -18 8 -5 9 -3 4
6 -6 10 -4 12 9 7 10 -4 20 -7 22 -7 2 0 4 -5 4 -11 0 -5 -5 -7 -12 -3 -7 5
-8 3 -3 -6 4 -7 9 -51 10 -97 1 -84 13 -112 39 -95 6 3 26 7 44 9 18 1 52 8
75 15 23 6 45 12 49 12 3 1 10 4 14 9 4 4 16 7 26 7 11 0 16 5 13 10 -4 6 -3
10 2 9 15 -4 43 13 37 22 -3 5 0 8 8 7 7 -2 12 2 11 9 -2 7 3 10 10 7 9 -3 17
8 24 29 10 33 9 35 -13 33 -13 0 -24 -4 -24 -8 0 -4 -12 -6 -27 -4 -16 1 -36
-1 -45 -6 -13 -6 -18 -5 -18 4 0 8 -3 9 -8 3 -9 -13 -72 -48 -72 -40 0 4 -7
-1 -16 -9 -8 -9 -22 -16 -30 -16 -8 0 -13 -5 -12 -11 2 -6 -3 -14 -9 -16 -8
-3 -13 4 -13 15 0 11 5 22 10 24 6 2 12 13 13 26 0 12 5 22 10 22 5 0 7 7 3
15 -3 8 -1 15 5 15 6 0 9 6 6 14 -3 8 -3 17 1 21 8 8 10 78 2 85 -9 9 -30 74
-24 79 2 3 7 -5 11 -17 5 -19 8 -21 22 -10 14 11 14 11 3 -3 -13 -17 -7 -49
10 -49 7 0 6 5 -1 14 -9 10 -7 16 5 27 14 12 14 14 0 25 -15 11 -15 12 0 18
13 5 14 9 4 21 -11 13 -10 14 5 9 13 -5 16 -4 11 4 -5 8 -2 10 8 6 14 -5 14
-8 0 -21 -13 -13 -13 -17 -2 -24 7 -5 8 -9 2 -9 -14 0 -10 -136 5 -154 6 -7 9
-15 6 -18 -8 -8 24 -32 47 -35 10 -2 17 1 14 5 -2 4 7 8 22 7 15 0 42 2 60 6
17 4 35 3 38 -2 3 -5 10 -9 15 -9 6 0 7 4 4 10 -3 6 1 7 9 4 9 -3 16 -1 16 5
0 7 8 11 18 9 9 -2 16 2 15 9 -2 7 3 10 11 7 8 -3 17 0 22 7 5 8 3 10 -7 4 -8
-5 -7 0 4 12 9 11 17 26 17 34 0 12 -2 11 -10 -1 -8 -12 -10 -12 -10 -1 0 8
-7 11 -20 8 -11 -3 -20 -1 -20 4 0 5 -5 9 -11 9 -5 0 -8 -4 -5 -8 2 -4 -7 -7
-22 -7 -15 1 -42 -4 -60 -12 -18 -7 -36 -12 -40 -11 -4 1 -17 -3 -29 -10 -21
-11 -23 -11 -20 7 2 10 9 26 16 35 8 10 9 16 3 16 -11 0 16 62 30 68 3 2 4 15
2 28 -3 19 -1 24 8 18 10 -5 10 -4 1 6 -9 10 -10 17 -2 27 9 10 8 13 -1 13
-10 0 -10 3 -1 14 8 10 9 16 1 21 -6 3 -9 9 -6 13 2 4 0 16 -3 26 -7 18 -9 17
-33 -7 -14 -14 -29 -23 -32 -20 -3 4 -6 -3 -6 -15 0 -12 -4 -22 -8 -22 -5 0
-8 10 -7 23 1 13 -10 33 -26 50 -16 15 -27 27 -24 27 2 0 -20 25 -50 55 -29
30 -58 55 -65 55 -6 0 -8 5 -5 10 3 6 1 10 -5 10 -6 0 -18 7 -27 15 -8 8 -19
13 -24 10 -5 -4 -9 -2 -9 3 0 10 -62 29 -100 30 -14 0 -38 -5 -55 -12z m381
-288 c5 -7 3 -8 -6 -3 -10 6 -12 4 -6 -11 5 -14 4 -16 -5 -7 -6 6 -8 16 -5 22
9 14 13 14 22 -1z m-147 -124 c-5 -15 -13 -32 -16 -38 -4 -6 -8 -26 -9 -44 0
-18 -4 -35 -7 -38 -9 -9 -28 6 -22 17 4 5 -1 9 -9 9 -8 0 -18 4 -21 10 -4 7 3
7 19 0 19 -7 26 -6 27 3 0 6 2 20 4 30 2 9 -2 17 -8 17 -7 1 -1 7 13 15 14 8
21 14 16 15 -5 0 -3 7 4 15 18 22 21 19 9 -11z"/>
<path d="M1920 3525 c-6 -8 -10 -20 -8 -26 6 -18 36 -20 42 -3 3 8 1 14 -5 14
-6 0 -8 4 -4 9 9 16 -12 22 -25 6z"/>
<path d="M1230 3487 c-69 -66 -94 -100 -105 -139 -2 -5 -4 -10 -5 -13 -1 -3
-4 -9 -5 -15 -1 -5 -4 -13 -5 -17 -1 -5 -2 -12 -1 -17 1 -6 -3 -21 -10 -34
-11 -19 -11 -25 1 -32 8 -6 11 -10 6 -10 -5 0 1 -11 13 -24 13 -14 31 -23 42
-21 10 2 19 -1 19 -6 0 -6 5 -7 10 -4 6 4 8 11 5 16 -4 5 3 6 17 1 13 -4 38
-7 56 -6 35 1 53 -12 28 -22 -8 -3 -13 -14 -11 -25 2 -11 -2 -22 -10 -26 -8
-3 -12 -9 -9 -14 3 -5 -4 -33 -15 -63 -11 -30 -17 -57 -14 -60 4 -3 0 -6 -7
-6 -7 0 -10 -3 -7 -7 4 -3 -1 -15 -10 -26 -10 -11 -12 -17 -5 -13 6 4 12 2 12
-3 0 -6 -5 -11 -10 -11 -6 0 -9 -3 -8 -7 2 -5 -5 -28 -14 -53 -9 -25 -22 -66
-29 -92 -7 -27 -17 -48 -22 -48 -5 0 -5 -9 -2 -20 4 -12 2 -20 -5 -20 -6 0
-10 -6 -9 -12 1 -7 -1 -21 -4 -30 -4 -10 -10 -26 -14 -35 -3 -10 -5 -24 -4
-30 1 -7 -3 -13 -9 -13 -5 0 -9 -3 -8 -7 1 -5 -9 -39 -22 -78 -13 -38 -23 -76
-22 -82 2 -7 -1 -13 -6 -13 -5 0 -9 -7 -10 -15 -1 -8 -3 -22 -4 -30 -1 -8 -5
-15 -8 -15 -4 0 -7 -12 -7 -26 0 -15 -5 -29 -10 -33 -10 -6 -29 -69 -25 -83 1
-5 -3 -8 -8 -8 -5 0 -9 -3 -8 -7 1 -5 -9 -42 -22 -83 -14 -41 -25 -77 -25 -80
0 -3 -7 -15 -14 -28 -7 -13 -10 -30 -7 -38 3 -8 1 -14 -4 -14 -12 0 -14 -40
-2 -41 4 0 39 -1 77 -2 39 -1 76 -6 84 -11 10 -7 12 -6 6 4 -6 9 -4 11 6 4 8
-4 25 -9 39 -11 24 -2 59 -9 70 -13 3 -1 8 -2 13 -1 4 1 23 -5 42 -13 19 -8
35 -13 35 -10 0 3 10 -2 21 -10 12 -8 28 -12 35 -9 8 3 14 0 14 -6 0 -6 3 -11
8 -10 15 2 52 -14 52 -23 0 -5 4 -7 9 -3 5 3 16 -1 24 -9 8 -8 17 -13 19 -11
2 3 37 -15 77 -40 40 -25 78 -45 84 -45 6 0 7 -3 4 -6 -4 -4 6 -14 22 -23 44
-24 120 -85 183 -146 18 -16 35 -29 39 -28 4 2 11 -6 14 -17 4 -11 11 -21 16
-21 5 -1 14 -2 21 -3 7 0 32 19 57 44 24 25 48 44 53 42 4 -1 8 5 8 13 0 8 7
15 16 15 8 0 13 4 9 9 -3 5 4 13 16 16 12 4 36 22 54 41 18 19 40 34 48 34 8
0 17 7 21 15 3 8 12 15 20 15 8 0 16 4 18 8 4 10 126 84 131 80 2 -2 12 4 21
12 10 8 25 15 34 16 22 4 44 -15 35 -30 -3 -6 3 -3 14 7 11 9 23 14 26 11 4
-4 9 0 13 9 3 9 11 14 19 11 7 -3 15 2 19 11 3 9 2 13 -4 10 -6 -3 -10 -2 -10
4 0 5 -11 -1 -25 -14 -27 -24 -56 -27 -63 -7 -2 7 3 10 12 6 9 -3 16 -1 16 6
0 6 4 9 9 6 5 -4 11 -2 13 3 1 6 15 12 30 15 14 2 35 9 46 15 11 6 22 8 25 5
3 -3 15 0 27 6 12 6 36 13 53 14 18 1 37 4 42 8 6 4 52 5 103 4 89 -2 92 -2
92 20 0 13 -5 26 -11 30 -6 3 -9 15 -6 25 3 11 2 17 -3 14 -4 -3 -11 12 -15
32 -4 21 -15 55 -26 77 -10 22 -19 47 -19 56 0 9 -3 20 -7 24 -8 8 -9 13 -12
42 0 9 -6 12 -13 8 -6 -4 -8 -3 -4 4 3 6 -1 30 -10 54 -8 24 -16 49 -16 56 -1
6 -4 12 -8 12 -3 0 -7 9 -8 20 -4 43 -6 50 -12 50 -7 0 -24 58 -21 73 0 4 -4
7 -10 7 -5 0 -7 5 -4 10 3 6 3 16 -2 23 -4 6 -8 17 -10 22 -1 6 -10 33 -21 62
-11 28 -17 54 -14 57 3 3 1 6 -5 6 -6 0 -10 13 -9 29 1 17 -1 28 -5 25 -6 -3
-10 4 -26 56 -2 8 -4 23 -4 33 0 9 -4 17 -10 17 -5 0 -8 3 -7 8 1 4 -3 16 -9
27 -5 11 -9 30 -8 42 1 12 -2 20 -6 18 -8 -6 -21 31 -21 63 -1 12 -6 22 -13
22 -8 0 -11 8 -8 20 3 11 1 20 -4 20 -5 0 -10 10 -10 22 -1 13 -6 32 -12 43
-17 35 -28 67 -30 86 -1 11 -20 7 -78 -17 -18 -8 -36 -15 -40 -15 -21 -4 -122
-82 -156 -121 -55 -63 -57 -66 -57 -83 0 -8 -3 -15 -8 -15 -15 0 -37 -80 -47
-174 -3 -27 -8 -52 -11 -57 -3 -5 -2 -9 3 -9 4 0 8 -24 9 -53 1 -85 8 -132 19
-139 6 -5 6 -8 -2 -8 -7 0 -13 -5 -13 -11 0 -5 5 -7 10 -4 14 9 12 -9 -2 -24
-11 -10 -10 -11 3 -6 12 5 17 0 18 -19 3 -50 4 -56 14 -56 6 0 8 -3 4 -6 -3
-4 0 -19 8 -35 8 -15 12 -35 9 -43 -4 -10 -1 -16 9 -16 10 0 15 -7 12 -20 -2
-11 0 -20 6 -20 5 0 9 -8 9 -18 0 -10 4 -22 9 -27 6 -6 12 -22 15 -37 3 -21 0
-29 -15 -33 -10 -4 -19 -11 -19 -16 0 -5 -8 -9 -17 -9 -9 0 -14 -3 -10 -6 8
-9 -50 -67 -61 -60 -5 3 -7 -6 -4 -19 3 -17 -1 -27 -12 -31 -9 -3 -16 -12 -16
-20 0 -7 -9 -33 -19 -56 -28 -61 -34 -81 -32 -97 1 -7 -1 -11 -6 -8 -4 3 -9
-11 -11 -31 -1 -19 -6 -40 -11 -46 -5 -6 -7 -19 -6 -28 2 -10 -1 -18 -7 -18
-6 0 -5 -7 2 -16 11 -12 11 -15 -1 -12 -8 2 -13 -3 -11 -12 2 -8 0 -11 -5 -7
-4 5 -9 32 -10 60 -1 29 -2 52 -3 52 -3 0 -9 63 -13 135 -2 36 -6 71 -10 77
-4 7 -3 14 3 18 5 3 10 11 10 16 0 6 -4 8 -8 5 -8 -5 -10 11 -15 119 -2 22 -6
45 -10 52 -4 6 -3 14 3 18 5 3 10 11 10 16 0 6 -6 7 -12 3 -10 -6 -10 -4 0 8
10 13 10 17 0 21 -8 3 -5 6 6 6 20 1 20 1 0 16 -22 17 -12 20 16 5 11 -6 17
-17 14 -25 -4 -8 -1 -15 5 -15 6 0 11 -5 11 -11 0 -5 -4 -8 -9 -5 -4 3 -8 -15
-7 -39 1 -44 14 -65 15 -25 1 11 1 29 2 40 0 13 4 18 12 13 7 -4 17 -8 22 -9
6 -1 18 -5 28 -9 10 -4 17 -3 17 5 0 6 5 8 10 5 6 -3 10 -1 10 4 0 14 -17 14
-25 1 -4 -7 -13 -7 -26 0 -10 6 -19 7 -19 3 0 -4 -5 -2 -12 5 -9 9 -9 15 1 25
11 9 13 9 7 0 -4 -7 -2 -13 3 -13 6 0 11 6 11 14 0 9 9 14 20 13 11 -1 18 -6
16 -12 -2 -5 -9 -9 -15 -8 -6 2 -11 -2 -11 -7 0 -13 13 -13 28 2 8 8 15 8 26
-2 9 -7 13 -16 10 -21 -3 -5 0 -9 6 -9 7 0 9 7 6 16 -4 10 -2 14 6 11 7 -2 12
-10 11 -16 -2 -6 2 -11 7 -11 6 0 10 5 10 10 0 6 5 10 11 10 5 0 7 -4 4 -10
-3 -5 -1 -10 4 -10 6 0 11 4 11 10 0 12 -35 31 -44 23 -3 -3 -6 3 -6 15 0 12
5 22 12 22 6 0 9 2 6 5 -10 10 -37 -7 -32 -19 3 -7 -2 -13 -11 -13 -9 0 -14 5
-12 12 5 12 -60 14 -80 2 -6 -4 -16 0 -23 8 -9 11 -8 14 9 14 12 1 30 1 40 2
11 0 22 7 25 15 3 8 11 14 17 14 8 0 8 -4 -1 -15 -9 -10 -9 -15 -1 -15 6 0 11
5 11 10 0 6 5 10 11 10 5 0 7 -4 4 -10 -3 -5 -1 -10 4 -10 18 0 12 19 -9 30
-11 6 -18 15 -15 20 3 5 -4 7 -16 5 -15 -3 -19 0 -15 10 3 9 0 12 -10 8 -12
-4 -12 -8 -2 -21 11 -14 10 -15 -7 -8 -16 6 -17 5 -8 -5 10 -10 15 -9 28 1 8
7 15 8 15 2 0 -17 -25 -31 -39 -22 -8 4 -21 6 -29 3 -11 -5 -10 1 4 23 12 17
14 25 5 20 -9 -6 -12 -5 -9 5 3 8 12 13 21 11 8 -1 19 3 23 9 4 7 3 9 -3 6 -6
-4 -22 3 -37 14 -19 15 -24 16 -20 5 3 -9 10 -16 16 -16 5 0 6 -5 3 -10 -4 -6
-9 -8 -13 -6 -4 2 -16 -2 -27 -11 -14 -10 -15 -14 -5 -13 25 4 40 0 40 -9 0
-4 -11 -7 -25 -6 -14 2 -25 -1 -25 -7 0 -5 8 -7 18 -4 12 4 19 1 19 -7 0 -14
-35 -15 -55 -3 -15 9 -18 -18 -17 -151 0 -71 -4 -119 -9 -115 -5 3 -7 -2 -3
-11 3 -9 2 -19 -4 -23 -6 -4 -3 -14 8 -27 10 -11 13 -17 6 -14 -13 8 -28 -9
-15 -17 9 -5 10 -34 1 -51 -2 -6 -4 -47 -4 -92 0 -46 -3 -83 -7 -83 -4 0 -3
-14 2 -30 5 -19 5 -28 -1 -25 -5 4 -9 1 -9 -5 0 -6 -5 -8 -10 -5 -6 4 -8 11
-4 16 3 6 1 22 -4 37 -6 15 -14 36 -18 47 -4 11 -6 23 -6 28 1 4 -5 24 -13 43
-8 20 -12 40 -9 45 3 5 0 9 -6 9 -6 0 -8 5 -5 10 3 6 2 10 -2 10 -8 0 -29 48
-34 75 -1 6 -9 15 -17 21 -9 7 -12 16 -7 24 5 9 4 11 -3 6 -7 -4 -12 -2 -12 3
0 6 -27 37 -60 69 -57 56 -73 82 -50 82 6 0 10 6 10 13 0 7 9 31 19 53 11 21
17 42 14 46 -2 5 1 8 8 8 7 0 9 3 6 7 -4 3 -2 12 4 20 6 7 8 13 4 13 -4 0 -2
6 4 13 6 8 13 24 15 38 3 13 5 24 6 24 1 0 3 7 5 15 2 8 8 29 13 47 6 17 8 34
4 37 -3 3 -1 6 5 6 5 0 9 12 8 28 -1 15 6 33 14 40 9 8 11 11 4 7 -9 -4 -11 5
-7 32 8 53 11 163 4 163 -3 0 -6 15 -8 33 -3 41 -6 56 -20 90 -7 16 -12 32
-12 36 0 10 -75 110 -97 130 -31 27 -98 76 -105 76 -4 0 -13 6 -19 13 -7 6
-18 12 -24 12 -13 0 -75 29 -75 35 0 2 18 9 40 15 38 10 57 40 26 40 -8 0 -21
7 -30 15 -30 30 -185 15 -186 -19 0 -6 -5 -3 -11 8 -6 10 -7 21 -3 25 5 3 18
23 29 44 11 20 23 37 26 37 4 0 20 27 36 60 15 33 30 60 33 60 3 0 4 18 2 40
-2 22 -9 40 -16 40 -6 0 -32 -19 -56 -43z"/>
<path d="M2593 3511 c2 -10 0 -25 -4 -34 -6 -10 -5 -18 1 -22 6 -4 8 -11 5
-16 -4 -5 -2 -9 3 -9 9 0 25 -37 23 -52 -1 -5 3 -8 7 -8 5 0 17 -16 28 -35 10
-19 21 -35 25 -35 4 0 12 -14 19 -31 l13 -30 22 23 c12 13 20 27 17 32 -3 5 3
6 12 3 10 -4 19 -7 22 -7 2 0 -4 -9 -13 -19 -9 -11 -21 -17 -26 -14 -6 4 -8
-1 -4 -11 4 -9 3 -14 -2 -11 -5 3 -12 -4 -16 -15 -3 -11 -9 -19 -13 -17 -4 1
-8 -1 -10 -5 -1 -4 -31 -36 -65 -72 -76 -79 -83 -87 -91 -114 -4 -12 -11 -20
-16 -17 -5 3 2 -15 15 -40 16 -29 20 -45 12 -45 -9 0 -9 -2 1 -9 7 -4 14 -18
15 -29 1 -12 4 -22 7 -22 9 0 33 -61 26 -67 -3 -4 2 -15 11 -25 16 -18 16 -19
-3 -13 -14 5 -13 3 4 -7 12 -8 20 -17 16 -20 -3 -4 -3 -12 1 -18 6 -9 10 -9
16 1 4 8 12 14 16 14 5 0 25 17 46 38 20 21 37 36 37 32 0 -3 6 0 14 7 8 7 12
16 9 21 -2 4 0 7 5 7 5 0 29 19 52 42 35 36 44 40 54 28 13 -17 72 -40 104
-40 11 0 24 -5 27 -10 5 -8 11 -8 20 0 9 7 15 8 20 1 11 -18 42 10 43 38 0 14
1 28 2 31 7 19 4 60 -5 60 -5 0 -3 5 5 10 9 6 10 10 3 10 -6 0 -10 9 -8 20 2
11 0 22 -5 25 -5 3 -7 12 -3 21 9 24 -19 12 -55 -24 -30 -31 -32 -35 -19 -55
18 -29 27 -67 16 -67 -6 0 -19 9 -31 20 -12 11 -28 20 -36 20 -9 0 -12 6 -8
16 3 8 2 12 -4 9 -6 -3 -10 -12 -10 -19 0 -21 -49 -61 -61 -49 -7 7 -5 14 7
24 9 8 20 14 23 14 3 0 4 4 3 10 -2 5 -1 7 3 3 4 -3 19 7 34 23 15 16 31 26
34 22 4 -3 7 -1 7 5 0 18 33 52 50 52 13 0 13 1 0 10 -13 8 -12 10 3 10 10 0
20 7 23 15 4 8 10 12 15 9 5 -3 9 2 9 11 0 9 5 13 11 10 6 -4 5 2 -3 14 -7 12
-21 24 -31 27 -10 3 -16 8 -14 11 3 3 -11 21 -31 41 -20 19 -36 39 -34 44 1 4
-5 8 -13 8 -9 0 -24 14 -33 30 -9 17 -24 32 -34 35 -9 3 -19 12 -22 20 -3 8
-15 15 -26 15 -11 0 -19 6 -17 12 1 7 -8 14 -20 16 -21 3 -21 1 -11 -35 7 -27
7 -38 -1 -41 -6 -2 -9 -7 -7 -11 3 -4 -4 -8 -15 -8 -14 -1 -19 4 -17 16 3 15
-20 56 -83 148 -9 13 -18 21 -21 18 -2 -3 -15 6 -28 20 -28 30 -55 33 -47 6z
m252 -151 c3 -5 -1 -10 -9 -10 -9 0 -16 5 -16 10 0 6 4 10 9 10 6 0 13 -4 16
-10z"/>
<path d="M1460 3405 c-12 -14 -6 -35 9 -35 12 0 21 39 11 45 -4 3 -13 -2 -20
-10z"/>
<path d="M2423 3405 c-8 -9 -9 -15 0 -24 17 -17 27 -13 27 8 0 25 -12 32 -27
16z"/>
<path d="M2560 3250 c-45 -12 -91 -41 -87 -53 3 -7 10 -11 17 -9 7 2 16 -1 19
-7 4 -6 35 -12 70 -14 55 -3 67 -1 87 18 27 25 31 45 10 45 -8 0 -16 4 -18 9
-4 12 -67 19 -98 11z"/>
<path d="M1075 3190 c4 -13 2 -20 -5 -18 -7 2 -14 -2 -17 -8 -7 -19 25 -24 54
-9 26 14 26 15 6 15 -13 0 -23 5 -23 11 0 5 6 7 13 3 8 -5 8 -2 -2 9 -19 23
-34 21 -26 -3z m15 -26 c0 -8 -19 -13 -24 -6 -3 5 1 9 9 9 8 0 15 -2 15 -3z"/>
<path d="M925 3181 c-3 -5 -2 -12 3 -15 5 -3 9 1 9 9 0 17 -3 19 -12 6z"/>
<path d="M1143 3153 c-20 -7 -15 -19 7 -20 11 -1 20 2 20 7 0 12 -13 18 -27
13z"/>
<path d="M920 3140 c-12 -8 -12 -10 -1 -10 11 0 11 -3 0 -17 -11 -13 -11 -15
-1 -9 19 11 12 -25 -8 -42 -8 -8 -9 -11 -2 -7 14 7 17 -11 3 -20 -6 -3 -8 -14
-6 -24 2 -11 -3 -22 -11 -25 -7 -3 -11 -12 -8 -20 5 -14 8 -14 21 -1 8 9 19
12 25 9 7 -5 8 -2 3 6 -6 10 -4 12 8 7 12 -4 14 -2 10 10 -4 10 -2 14 5 9 23
-14 21 14 -3 30 -14 9 -25 21 -25 26 0 6 8 4 18 -3 16 -13 16 -12 1 6 -8 11
-15 35 -14 53 1 17 1 32 1 32 -1 0 -8 -5 -16 -10z m50 -127 c0 -3 -3 -3 -7 0
-3 4 -16 -2 -28 -13 -17 -16 -22 -17 -22 -6 0 8 4 13 9 10 4 -3 8 0 8 5 0 6
-6 11 -12 11 -9 0 -9 3 1 9 15 9 51 -2 51 -16z"/>
<path d="M1093 3132 c-8 -13 -13 -14 -24 -5 -11 8 -17 8 -26 -2 -9 -10 -6 -12
15 -11 32 2 68 21 55 29 -5 3 -14 -2 -20 -11z"/>
<path d="M1225 3040 c-4 -6 -10 -8 -15 -5 -4 3 -13 -2 -20 -10 -7 -8 -20 -15
-29 -15 -14 0 -14 -2 -1 -10 9 -6 17 -5 21 2 4 6 6 0 6 -15 -1 -14 -5 -23 -9
-20 -5 2 -8 0 -8 -5 0 -11 30 -25 38 -17 3 3 -1 5 -9 5 -12 1 -11 3 1 13 8 7
21 20 28 29 12 15 11 17 -9 13 l-22 -4 21 20 c21 19 27 29 18 29 -3 0 -8 -5
-11 -10z m-5 -44 c0 -2 -8 -10 -17 -17 -16 -13 -17 -12 -4 4 13 16 21 21 21
13z"/>
<path d="M3160 2997 c-14 -23 -26 -49 -28 -57 -11 -45 -1 -218 14 -242 12 -19
-9 -5 -47 32 -23 22 -52 43 -65 46 -13 3 -24 9 -24 13 0 3 -12 7 -28 8 -41 4
-56 8 -71 17 -10 6 -12 5 -7 -2 4 -7 3 -12 -3 -12 -17 0 9 -48 35 -65 13 -8
26 -15 29 -15 11 1 33 -25 27 -34 -3 -5 0 -6 7 -2 7 4 33 -2 58 -14 26 -12 54
-23 62 -25 9 -2 23 -6 31 -9 16 -7 55 46 43 58 -3 3 -1 6 5 6 6 0 9 9 7 20 -2
11 1 20 7 20 6 0 8 10 4 26 -4 14 -3 23 1 21 4 -3 8 6 8 19 0 13 -3 24 -7 24
-8 0 -4 27 5 36 4 4 2 12 -3 19 -5 6 -10 27 -11 46 -2 19 -5 39 -8 44 -3 6 -7
21 -9 35 -2 13 -4 26 -6 27 -1 2 -13 -16 -26 -40z"/>
<path d="M685 3020 c-3 -5 -3 -10 2 -10 4 0 1 -5 -7 -10 -12 -8 -12 -10 -1
-10 11 0 11 -3 1 -15 -7 -8 -13 -29 -14 -48 -1 -18 -5 -37 -8 -43 -7 -12 -3
-124 6 -149 4 -11 12 -28 17 -37 5 -10 9 -25 9 -33 0 -8 7 -15 16 -15 8 0 12
-4 9 -10 -3 -5 -5 -10 -3 -10 11 0 113 41 117 48 3 4 16 7 28 6 12 -1 20 2 18
6 -3 5 7 12 23 18 34 12 92 65 92 85 0 8 -9 17 -20 20 -11 3 -18 2 -15 -3 3
-4 -9 -10 -25 -12 -17 -3 -30 0 -30 6 0 8 -3 7 -8 0 -6 -9 -34 -22 -62 -28 -2
-1 -23 -19 -47 -42 -31 -31 -43 -37 -48 -27 -3 8 -2 20 2 26 12 19 14 38 15
119 1 62 -3 88 -22 128 -23 50 -33 59 -45 40z"/>
<path d="M1140 2960 c-7 -16 -15 -28 -19 -27 -3 1 -22 -10 -42 -26 -20 -15
-41 -27 -47 -27 -7 0 -12 -4 -12 -10 0 -14 22 -8 38 10 11 13 11 11 2 -8 -6
-13 -16 -20 -22 -16 -7 5 -9 2 -5 -8 3 -9 0 -21 -6 -27 -9 -9 -8 -11 4 -6 9 3
26 25 39 48 13 23 29 47 35 52 15 14 38 18 30 5 -9 -14 27 -9 38 5 5 6 7 4 4
-5 -2 -9 -16 -15 -37 -15 -22 0 -36 -6 -44 -20 -6 -11 -19 -30 -28 -44 -10
-13 -15 -28 -11 -34 4 -6 1 -7 -8 -2 -11 6 -11 5 -3 -4 16 -17 58 4 50 25 -3
8 -3 21 0 29 5 12 10 13 20 4 17 -14 19 2 2 19 -8 8 -9 12 -1 12 6 0 14 -6 16
-12 4 -10 6 -10 6 0 1 6 6 12 11 12 6 0 3 -11 -6 -25 -8 -13 -12 -30 -8 -36 5
-8 3 -9 -6 -4 -9 6 -11 4 -5 -5 5 -8 4 -11 -3 -6 -7 4 -9 -1 -7 -15 3 -17 2
-20 -6 -12 -13 13 -39 6 -39 -9 0 -5 10 -6 21 -3 12 4 19 3 16 -2 -8 -12 10
-39 20 -30 4 5 1 12 -7 17 -11 7 -11 10 -2 10 7 0 12 7 10 16 -2 10 3 19 10
21 8 3 10 -2 6 -14 -5 -14 -4 -15 4 -3 6 8 8 18 5 23 -3 5 1 14 8 19 11 8 10
9 -3 4 -10 -3 -18 -1 -18 4 0 10 15 14 35 10 6 -1 5 4 -2 11 -12 12 -7 42 6
34 14 -8 9 30 -6 46 -7 9 -11 24 -7 33 11 29 -13 17 -26 -14z m25 -28 c-3 -3
-11 0 -18 7 -9 10 -8 11 6 5 10 -3 15 -9 12 -12z m-80 -112 c3 -5 1 -10 -4
-10 -6 0 -11 5 -11 10 0 6 2 10 4 10 3 0 8 -4 11 -10z"/>
<path d="M980 2858 c0 -4 7 -8 16 -8 8 0 12 -4 9 -10 -3 -5 1 -10 9 -10 13 0
14 3 5 18 -12 19 -39 26 -39 10z"/>
<path d="M1100 2840 c0 -5 5 -10 10 -10 6 0 10 5 10 10 0 6 -4 10 -10 10 -5 0
-10 -4 -10 -10z"/>
<path d="M780 2799 c-10 -6 -11 -9 -2 -9 6 0 11 -5 10 -11 -2 -6 3 -14 10 -16
7 -3 12 4 12 16 0 25 -11 33 -30 20z"/>
<path d="M3065 2800 c-9 -14 14 -33 31 -25 13 5 15 9 6 12 -6 3 -10 8 -8 12 3
4 -2 8 -10 8 -8 0 -17 -3 -19 -7z"/>
<path d="M569 2785 c-2 -24 -4 -29 -13 -44 -7 -10 -6 -12 4 -6 10 6 11 4 4 -6
-13 -21 -14 -39 -2 -39 6 0 5 -6 -2 -15 -10 -12 -10 -18 0 -30 7 -9 8 -15 2
-15 -11 0 -11 -18 1 -37 5 -7 6 -13 3 -13 -9 0 32 -102 44 -110 6 -4 11 -11
11 -16 -1 -5 5 -17 14 -26 16 -19 34 -16 77 14 14 10 31 18 37 18 6 0 11 5 11
10 0 6 4 10 10 10 17 0 140 110 124 110 -5 0 -1 5 9 11 14 8 15 14 7 24 -10
12 -34 11 -70 -2 -8 -3 -22 -7 -30 -9 -8 -2 -20 -11 -27 -20 -7 -10 -13 -14
-13 -8 0 5 -20 -13 -44 -41 -25 -27 -42 -53 -39 -58 3 -5 0 -8 -8 -5 -8 3 -14
16 -14 31 0 14 -3 29 -7 33 -4 4 -3 14 4 21 9 11 9 17 -3 24 -12 7 -12 9 1 9
9 0 11 3 5 8 -6 4 -11 24 -12 45 -2 21 -13 52 -25 70 -12 17 -15 27 -7 22 7
-5 3 5 -11 22 -28 35 -39 40 -41 18z"/>
<path d="M3268 2767 c-7 -12 -13 -24 -13 -27 0 -3 -6 -15 -13 -27 -6 -12 -13
-30 -15 -40 -1 -10 -6 -23 -10 -30 -4 -6 -3 -15 3 -18 7 -4 7 -11 2 -18 -5 -7
-9 -38 -8 -70 1 -39 -3 -57 -11 -57 -7 0 -13 6 -13 14 0 20 -78 94 -122 117
-21 11 -38 16 -38 12 0 -4 -5 -2 -11 4 -9 9 -49 7 -49 -3 0 -34 152 -174 189
-174 5 0 16 -8 23 -18 16 -21 45 -22 58 -2 5 8 10 11 10 5 0 -14 40 66 45 90
2 11 4 21 6 23 1 1 2 5 3 10 1 4 4 12 7 17 4 6 5 19 3 29 -1 11 1 27 6 36 5
10 6 21 2 25 -4 3 -8 21 -8 38 -1 18 -2 42 -3 53 -2 31 -28 38 -43 11z"/>
<path d="M1746 2546 c3 -9 10 -16 15 -16 5 0 0 -9 -11 -20 -12 -12 -18 -25
-15 -30 4 -6 -2 -10 -12 -11 -10 0 -13 -3 -6 -5 6 -3 23 2 37 12 16 10 26 12
26 5 0 -6 -11 -17 -25 -23 -24 -11 -33 -47 -10 -40 5 2 13 -5 17 -15 7 -16 8
-16 5 2 -2 11 -9 19 -16 17 -7 -1 -11 3 -9 10 3 7 13 15 23 16 10 3 15 0 11
-7 -4 -6 -2 -11 4 -11 7 0 9 8 4 23 l-7 22 23 -20 c13 -11 20 -14 15 -6 -6 11
-4 13 8 8 9 -3 19 -1 23 5 4 7 3 8 -4 4 -11 -7 -17 7 -12 29 1 6 -1 7 -5 4 -9
-10 -52 34 -47 46 3 6 2 7 -3 3 -4 -4 -14 -3 -22 4 -11 8 -12 7 -7 -6z m42
-38 c-2 -4 6 -13 16 -21 12 -9 15 -16 8 -21 -12 -7 -35 27 -25 38 3 3 1 6 -5
6 -7 0 -12 -4 -12 -9 0 -5 -7 -11 -15 -15 -19 -7 -19 -1 1 19 15 15 39 17 32
3z"/>
<path d="M489 2525 c-1 -14 -2 -31 -3 -37 -4 -31 15 -129 32 -171 7 -16 12
-33 12 -38 0 -5 5 -9 10 -9 6 0 10 -6 10 -14 0 -8 7 -17 16 -20 8 -3 12 -10 9
-16 -3 -5 -1 -10 5 -10 6 0 20 -9 32 -19 20 -20 21 -20 49 1 16 12 29 25 29
30 0 4 7 8 15 8 8 0 15 5 15 10 0 6 11 20 26 32 30 27 88 113 99 147 7 22 5
23 -21 17 -16 -4 -30 -12 -32 -17 -2 -5 -9 -9 -16 -9 -6 0 -26 -13 -44 -30
-33 -30 -56 -31 -67 -2 -5 14 -7 14 -15 2 -15 -24 -12 -30 15 -30 14 0 25 -2
25 -4 0 -7 -52 -96 -58 -100 -4 -2 -8 19 -9 47 -3 81 -18 150 -33 155 -6 2 -8
8 -4 13 3 5 0 9 -5 9 -6 0 -11 4 -11 10 0 12 -59 70 -71 70 -5 0 -10 -11 -10
-25z"/>
<path d="M1724 2542 c4 -7 2 -19 -4 -27 -7 -9 -8 -15 -2 -15 16 0 24 32 11 44
-9 8 -10 8 -5 -2z"/>
<path d="M3326 2506 c-20 -22 -36 -47 -36 -54 0 -7 -5 -10 -10 -7 -6 4 -10 3
-9 -2 5 -29 -2 -53 -13 -47 -10 6 -10 5 -1 -8 7 -8 10 -18 6 -22 -7 -6 -9 -21
-12 -88 -1 -37 -16 -35 -32 5 -7 17 -26 46 -41 62 -15 17 -28 33 -28 36 0 4
-8 9 -17 13 -10 3 -35 17 -57 32 -21 14 -35 21 -32 15 4 -6 2 -11 -5 -11 -10
0 -10 -3 -1 -12 7 -7 12 -19 12 -28 0 -10 8 -26 18 -38 9 -11 26 -33 37 -48
19 -25 51 -59 109 -112 28 -26 31 -24 82 29 27 28 62 92 69 124 2 11 8 35 14
53 7 23 6 32 -2 32 -8 0 -8 3 -2 8 6 4 12 30 13 58 3 64 -12 66 -62 10z"/>
<path d="M1693 2445 c0 -8 4 -12 9 -9 5 3 6 10 3 15 -9 13 -12 11 -12 -6z"/>
<path d="M1850 2439 c0 -5 -4 -8 -8 -5 -10 6 -9 -95 1 -111 11 -17 35 -16 53
2 22 21 15 93 -10 111 -24 17 -36 18 -36 3z"/>
<path d="M1710 2421 c0 -6 4 -13 10 -16 6 -3 7 1 4 9 -7 18 -14 21 -14 7z"/>
<path d="M1795 2419 c-4 -6 -4 -13 -1 -16 3 -4 6 -1 6 6 0 7 5 9 12 5 7 -4 8
-3 4 4 -9 15 -13 15 -21 1z"/>
<path d="M2015 2420 c3 -5 13 -10 21 -10 8 0 14 -4 14 -10 0 -5 6 -10 13 -10
6 1 1 10 -12 20 -25 21 -46 27 -36 10z"/>
<path d="M1999 2408 c-12 -46 2 -72 24 -48 9 10 8 12 -5 7 -10 -4 -18 -2 -18
3 0 17 21 22 36 9 14 -12 14 -15 -6 -31 -12 -10 -18 -18 -12 -18 5 0 15 6 22
14 6 8 17 13 25 10 7 -3 16 -1 20 5 4 7 0 8 -11 4 -13 -5 -15 -3 -9 7 5 8 4
11 -3 6 -6 -3 -13 -2 -17 4 -6 10 -44 33 -46 28z"/>
<path d="M1775 2379 c-4 -6 -5 -12 -2 -15 2 -3 7 2 10 11 7 17 1 20 -8 4z"/>
<path d="M3207 2375 c-18 -13 -18 -14 2 -25 19 -9 21 -8 21 15 0 29 1 29 -23
10z"/>
<path d="M1720 2365 c0 -2 6 -8 13 -14 10 -8 14 -7 14 2 0 8 -6 14 -14 14 -7
0 -13 -1 -13 -2z"/>
<path d="M1796 2358 c3 -5 10 -6 15 -3 13 9 11 12 -6 12 -8 0 -12 -4 -9 -9z"/>
<path d="M2050 2325 c0 -8 2 -15 4 -15 2 0 6 7 10 15 3 8 1 15 -4 15 -6 0 -10
-7 -10 -15z"/>
<path d="M1667 2319 c7 -7 15 -10 18 -7 3 3 -2 9 -12 12 -14 6 -15 5 -6 -5z"/>
<path d="M1711 2307 c-13 -21 -12 -21 5 -5 10 10 16 20 13 22 -3 3 -11 -5 -18
-17z"/>
<path d="M1805 2319 c-4 -6 -5 -12 -2 -15 2 -3 7 2 10 11 7 17 1 20 -8 4z"/>
<path d="M2073 2299 c0 -25 1 -26 18 -11 16 14 17 32 3 32 -3 0 -2 -4 1 -10 3
-5 2 -10 -4 -10 -5 0 -11 6 -14 13 -2 6 -4 0 -4 -14z"/>
<path d="M446 2268 c4 -18 7 -39 7 -45 0 -7 4 -13 9 -13 4 0 8 -11 8 -24 0
-14 5 -28 10 -31 6 -3 10 -15 10 -26 0 -10 5 -19 10 -19 6 0 10 -6 10 -13 0
-7 9 -23 20 -35 12 -12 19 -22 16 -22 -3 0 6 -11 20 -25 14 -14 29 -25 34 -25
5 0 17 -11 26 -25 l17 -26 29 28 c33 30 85 103 86 117 0 5 4 12 9 15 5 3 18
29 30 57 16 40 18 55 10 64 -9 10 -9 11 0 6 7 -4 9 1 6 15 -6 20 -6 20 -32 -3
-14 -13 -27 -26 -29 -30 -2 -5 -10 -8 -18 -8 -9 0 -13 -4 -10 -9 3 -4 -3 -16
-14 -26 -11 -10 -17 -22 -14 -26 3 -5 0 -9 -6 -9 -6 0 -8 -4 -5 -10 3 -5 2
-10 -3 -10 -9 0 -20 -27 -28 -68 -5 -26 -12 -23 -24 10 -7 18 -14 35 -14 38
-11 35 -32 80 -38 80 -4 0 -8 7 -8 15 0 8 -4 15 -10 15 -5 0 -10 6 -10 13 0 6
-16 23 -34 37 -19 14 -32 30 -28 35 3 6 2 7 -3 3 -4 -4 -16 -3 -27 3 -19 10
-19 8 -12 -23z"/>
<path d="M1726 2285 c-18 -14 -18 -14 1 -12 11 0 20 7 20 14 0 7 -1 13 -1 13
-1 0 -9 -7 -20 -15z"/>
<path d="M3395 2280 c-10 -11 -23 -17 -29 -13 -6 3 -8 3 -4 -2 4 -4 -9 -23
-29 -41 -20 -19 -33 -34 -29 -34 4 0 -1 -12 -12 -27 -11 -16 -20 -30 -20 -33
-1 -7 -13 -41 -26 -72 -12 -31 -26 -37 -26 -12 0 54 -104 199 -143 199 -16 0
-12 -51 7 -97 9 -21 16 -41 15 -44 0 -4 3 -10 8 -13 4 -3 21 -26 37 -50 52
-80 81 -100 108 -73 6 6 18 12 25 12 7 0 13 4 13 9 0 4 11 21 25 37 39 44 42
49 49 72 4 12 11 22 15 22 4 0 8 6 9 13 2 23 8 42 17 57 5 8 10 23 11 33 1 9
2 18 3 20 2 1 4 12 7 24 5 30 -10 37 -31 13z"/>
<path d="M1784 2282 c3 -6 1 -14 -5 -17 -6 -4 -8 -18 -4 -32 7 -30 -12 -22
-25 11 -6 15 -9 16 -9 5 -1 -9 6 -22 14 -29 8 -7 13 -16 10 -20 -3 -5 6 -3 19
3 20 9 22 14 10 20 -19 11 -18 38 1 31 8 -4 12 -10 9 -15 -3 -5 -1 -9 5 -9 20
0 21 19 1 25 -11 4 -18 10 -15 15 3 5 0 12 -6 16 -7 4 -9 3 -5 -4z"/>
<path d="M1812 2278 c3 -7 12 -14 22 -14 13 -2 13 -1 1 3 -8 2 -13 9 -10 14 4
5 1 9 -5 9 -7 0 -10 -6 -8 -12z"/>
<path d="M1676 2258 c3 -5 10 -6 15 -3 13 9 11 12 -6 12 -8 0 -12 -4 -9 -9z"/>
<path d="M2090 2260 c0 -5 5 -10 11 -10 5 0 7 5 4 10 -3 6 -8 10 -11 10 -2 0
-4 -4 -4 -10z"/>
<path d="M1823 2217 c-4 -8 -16 -16 -25 -20 -10 -3 -18 -12 -17 -19 0 -10 2
-10 6 0 2 6 11 12 18 12 8 0 19 9 25 20 12 22 6 28 -7 7z"/>
<path d="M1825 2180 c-4 -6 -10 -8 -14 -6 -4 3 -8 -1 -8 -9 0 -13 4 -12 19 2
18 16 22 23 14 23 -3 0 -8 -5 -11 -10z"/>
<path d="M2125 2141 c-3 -5 -27 -8 -53 -6 -26 2 -52 -1 -59 -7 -8 -6 -19 -6
-33 2 -26 14 -43 4 -35 -21 5 -14 0 -22 -17 -28 -13 -6 -17 -10 -9 -10 8 -1
23 6 33 16 17 15 18 15 18 -5 0 -12 4 -22 10 -22 13 0 1 32 -18 47 -9 7 -13
16 -9 19 4 4 13 1 22 -6 9 -7 22 -9 32 -4 28 12 63 14 63 3 0 -5 -5 -9 -12 -9
-6 0 -8 -3 -5 -6 4 -4 13 -1 22 6 17 14 21 0 4 -17 -8 -8 -8 -16 0 -30 11 -16
11 -16 6 5 -4 15 -1 24 9 28 9 3 13 11 9 17 -4 7 0 8 13 3 10 -4 15 -4 11 0
-4 4 1 13 11 20 9 8 12 14 5 14 -6 0 -14 -4 -18 -9z"/>
<path d="M1759 2126 c14 -16 -11 -42 -30 -31 -8 6 -8 2 0 -13 14 -27 14 -39
-1 -24 -7 7 -17 12 -22 12 -6 0 -3 -5 7 -11 9 -6 14 -16 11 -22 -4 -7 5 -1 19
12 15 14 27 20 27 14 0 -5 -11 -20 -25 -33 l-26 -24 -5 21 c-3 12 -13 24 -21
27 -10 4 -8 -3 6 -23 23 -32 30 -68 7 -38 -7 9 -17 17 -21 17 -5 0 1 -10 13
-23 12 -13 19 -27 15 -30 -3 -4 -1 -7 6 -7 6 0 11 6 10 13 -4 34 2 49 17 43
10 -4 25 1 35 10 10 9 23 13 30 8 7 -4 10 -3 5 4 -3 6 -2 13 4 17 12 7 4 25
-11 25 -5 0 -13 -8 -16 -17 -9 -24 -33 -47 -40 -39 -3 3 1 14 10 23 8 10 17
25 19 33 2 8 10 20 18 27 12 10 13 14 2 25 -11 11 -12 10 -6 -7 6 -18 5 -18
-15 3 -24 24 -41 31 -22 8z m18 -34 c0 -10 -9 -19 -20 -19 -18 -2 -18 -1 -2
18 22 23 24 24 22 1z m43 -36 c0 -3 -4 -8 -10 -11 -5 -3 -10 -1 -10 4 0 6 5
11 10 11 6 0 10 -2 10 -4z"/>
<path d="M2020 2099 c0 -5 5 -7 10 -4 6 3 10 8 10 11 0 2 -4 4 -10 4 -5 0 -10
-5 -10 -11z"/>
<path d="M1996 2088 c4 -7 16 -23 27 -35 20 -23 11 -33 -10 -12 -6 6 -16 10
-21 8 -6 -2 6 -12 25 -22 19 -9 31 -12 27 -5 -5 7 -2 9 7 6 18 -7 24 28 7 38
-7 5 -9 1 -5 -9 7 -19 -8 -23 -19 -5 -4 6 1 17 11 25 11 7 14 13 8 13 -7 0
-15 -4 -18 -10 -9 -15 -25 -12 -25 5 0 8 -5 15 -11 15 -5 0 -7 -6 -3 -12z"/>
<path d="M2110 2090 c-8 -5 -12 -12 -9 -15 4 -3 12 1 19 10 14 17 11 19 -10 5z"/>
<path d="M1810 2086 c0 -2 7 -7 16 -10 8 -3 12 -2 9 4 -6 10 -25 14 -25 6z"/>
<path d="M1940 2050 c-6 -11 -8 -20 -6 -20 3 0 10 9 16 20 6 11 8 20 6 20 -3
0 -10 -9 -16 -20z"/>
<path d="M800 2045 c0 -8 -4 -15 -8 -15 -9 0 -51 -69 -50 -84 0 -5 -6 -12 -12
-16 -7 -4 -13 -19 -13 -34 -1 -14 -6 -26 -10 -26 -4 0 -7 -6 -6 -12 8 -63 -18
-71 -41 -13 -8 19 -17 35 -22 35 -4 0 -8 5 -8 10 0 6 -11 23 -24 38 -14 15
-33 37 -44 49 -10 13 -22 20 -26 16 -3 -3 -6 1 -6 10 0 10 -5 14 -15 11 -8 -4
-15 -1 -15 5 0 6 -7 11 -15 11 -8 0 -15 5 -15 12 0 6 -6 3 -14 -8 -8 -10 -11
-21 -7 -24 5 -3 7 -13 5 -23 -1 -10 2 -14 8 -11 6 4 9 1 6 -7 -2 -7 4 -22 13
-33 10 -10 16 -23 13 -27 -2 -4 4 -12 13 -18 10 -6 15 -11 11 -11 -14 0 75
-100 89 -100 4 0 14 -9 20 -20 17 -26 -1 -35 -27 -13 -24 21 -80 42 -96 36
-13 -5 -7 -43 7 -43 5 0 8 -4 7 -9 -2 -5 6 -17 17 -26 11 -9 13 -13 5 -9 -8 4
8 -16 35 -43 28 -28 53 -49 58 -46 4 2 7 -1 7 -7 0 -5 16 -18 35 -27 19 -9 35
-21 35 -25 0 -5 4 -7 9 -3 5 3 12 1 16 -5 3 -5 23 -10 44 -10 37 0 39 2 52 44
7 25 15 43 19 41 3 -2 6 9 7 23 5 56 15 102 22 97 10 -5 7 27 -3 43 -4 7 -2
12 4 12 7 0 8 6 1 19 -6 10 -7 22 -3 26 4 5 1 5 -7 0 -8 -4 -17 -2 -22 6 -7
11 -9 11 -9 -2 0 -9 -7 -20 -16 -23 -8 -3 -12 -10 -9 -16 3 -5 2 -10 -3 -10
-5 0 -9 -6 -9 -12 0 -7 -4 -29 -8 -48 -5 -19 -8 -56 -9 -82 -1 -25 -4 -50 -8
-53 -4 -4 -20 8 -35 26 -15 18 -46 50 -68 71 -21 20 -36 40 -32 44 4 4 1 14
-6 22 -11 13 -9 14 11 1 12 -8 22 -17 22 -21 0 -17 38 -7 56 15 21 23 67 112
70 136 2 8 6 17 11 20 4 3 10 17 11 31 2 14 7 30 11 35 3 6 6 17 5 25 -1 8 -2
22 -3 31 -1 21 -31 34 -31 14z"/>
<path d="M1956 2035 c-3 -8 -1 -15 4 -15 6 0 10 7 10 15 0 8 -2 15 -4 15 -2 0
-6 -7 -10 -15z"/>
<path d="M3048 2038 c-10 -6 -10 -8 2 -8 9 0 11 -3 5 -8 -13 -9 -17 -32 -6
-32 4 0 7 -11 6 -25 -2 -14 1 -27 6 -31 5 -3 7 -10 4 -15 -4 -5 -1 -9 5 -9 6
0 9 -3 7 -7 -3 -5 14 -44 38 -88 44 -83 40 -81 103 -73 6 1 12 5 12 10 0 4 6
8 14 8 8 0 16 7 20 15 3 8 12 15 21 15 8 0 15 7 15 16 0 8 5 12 10 9 6 -3 10
-1 10 5 0 6 9 21 20 33 26 27 94 167 86 175 -13 12 -46 8 -46 -5 0 -8 -4 -12
-9 -9 -12 8 -145 -127 -135 -137 2 -2 -2 -10 -11 -17 -8 -7 -15 -18 -15 -24 0
-7 -7 -21 -16 -32 -8 -10 -13 -13 -9 -6 3 6 2 12 -3 12 -5 0 -9 16 -10 35 -3
56 -5 65 -14 65 -4 0 -8 7 -8 15 0 8 -5 15 -11 15 -5 0 -7 4 -4 10 6 9 -32 71
-48 78 -4 2 -5 7 -3 11 7 10 -20 10 -36 -1z"/>
<path d="M1660 2036 c0 -2 7 -7 16 -10 8 -3 12 -2 9 4 -6 10 -25 14 -25 6z"/>
<path d="M1980 2021 c0 -5 7 -11 15 -15 8 -3 15 -1 15 3 0 5 -7 11 -15 15 -8
3 -15 1 -15 -3z"/>
<path d="M1790 2005 c0 -2 10 -10 23 -16 20 -11 21 -11 8 4 -13 16 -31 23 -31
12z"/>
<path d="M2026 1996 c6 -15 4 -17 -6 -11 -9 6 -11 4 -5 -4 5 -9 10 -10 18 -2
8 8 7 14 -2 24 -10 10 -11 8 -5 -7z"/>
<path d="M1740 1983 c0 -6 5 -15 11 -18 6 -5 4 -12 -8 -22 -16 -13 -16 -14 -1
-9 9 3 19 0 21 -7 2 -7 3 -4 2 5 -2 9 4 26 12 37 8 12 10 21 4 21 -5 0 -12 -6
-14 -12 -4 -10 -8 -9 -16 2 -7 9 -11 10 -11 3z"/>
<path d="M1796 1972 c-3 -5 1 -9 9 -9 8 0 12 4 9 9 -3 4 -7 8 -9 8 -2 0 -6 -4
-9 -8z"/>
<path d="M1781 1947 c2 -1 12 -9 22 -16 15 -12 17 -12 11 3 -3 9 -13 16 -22
16 -8 0 -13 -1 -11 -3z"/>
<path d="M654 1918 c-4 -6 -2 -14 4 -16 19 -6 26 -3 28 13 3 18 -22 20 -32 3z"/>
<path d="M1780 1920 c0 -5 5 -10 11 -10 5 0 7 -5 3 -12 -4 -7 -3 -8 5 -4 9 6
9 11 0 22 -14 17 -19 18 -19 4z"/>
<path d="M3197 1923 c-12 -11 -7 -30 7 -30 8 0 14 9 13 19 -1 19 -9 23 -20 11z"/>
<path d="M1772 1880 c0 -14 2 -19 5 -12 2 6 2 18 0 25 -3 6 -5 1 -5 -13z"/>
<path d="M3009 1843 c0 -5 -3 -17 -5 -28 -7 -28 -7 -35 1 -79 10 -60 12 -67
35 -138 21 -68 33 -78 75 -68 6 1 16 3 23 3 6 0 12 4 12 9 0 5 5 6 10 3 6 -3
10 -1 10 4 0 6 5 11 10 11 24 0 113 78 150 131 52 75 56 85 31 92 -12 3 -21 1
-21 -5 0 -5 -4 -6 -10 -3 -5 3 -10 2 -10 -2 0 -5 -9 -9 -20 -10 -11 -1 -29
-11 -41 -22 -12 -11 -27 -17 -33 -14 -6 3 -8 3 -5 -1 4 -4 -14 -29 -40 -56
-25 -27 -54 -59 -63 -71 -10 -13 -18 -21 -19 -19 0 3 -2 39 -5 79 -2 41 -8 79
-14 85 -5 5 -10 20 -10 32 0 34 -58 97 -61 67z"/>
<path d="M1000 1783 c0 -5 -16 -7 -36 -5 -26 3 -35 1 -30 -7 4 -6 2 -11 -3
-11 -6 0 -11 -11 -11 -25 0 -14 -4 -25 -10 -25 -5 0 -9 -3 -9 -7 3 -21 -2 -44
-9 -39 -4 2 -8 -3 -9 -12 0 -9 -4 -32 -8 -51 -7 -31 -6 -32 11 -23 10 5 25 7
33 4 9 -3 11 0 6 9 -5 8 -5 11 -1 8 3 -3 32 0 63 7 31 7 60 11 65 8 4 -3 14
-2 21 3 20 12 37 12 37 0 0 -8 3 -7 9 1 9 15 17 15 45 0 14 -8 17 -7 11 3 -6
9 -3 10 11 5 10 -4 39 -9 63 -12 24 -2 49 -8 55 -12 6 -4 22 -7 36 -8 39 -1
90 -16 90 -25 0 -5 7 -6 15 -3 8 4 15 1 15 -5 0 -6 3 -10 8 -9 13 4 102 -26
102 -35 0 -4 4 -6 9 -3 5 3 14 -1 21 -9 7 -8 16 -13 20 -10 5 3 15 -1 23 -9 8
-8 17 -12 21 -9 3 4 6 0 6 -7 0 -7 3 -10 6 -7 4 4 19 -2 34 -13 30 -21 60 -26
60 -11 0 5 -9 13 -20 16 -11 3 -20 14 -20 22 0 9 -3 14 -6 10 -3 -3 -11 -1
-18 4 -45 38 -60 49 -65 49 -3 0 -19 11 -34 25 -15 14 -27 23 -27 20 0 -4 -13
3 -29 14 -15 11 -31 18 -35 14 -3 -3 -6 1 -6 10 0 10 -5 14 -15 11 -8 -4 -15
-2 -15 2 0 8 -28 22 -73 38 -14 5 -16 10 -7 26 9 16 8 18 -5 14 -8 -3 -13 -10
-10 -14 3 -5 1 -11 -5 -15 -5 -3 -10 -2 -10 3 0 8 -27 17 -65 22 -2 1 -20 7
-40 16 -19 8 -35 11 -35 8 0 -4 -6 -2 -13 4 -7 6 -30 12 -50 14 -20 1 -37 5
-37 8 0 4 -27 6 -59 6 -33 -1 -57 2 -55 6 2 4 0 9 -6 13 -5 3 -10 2 -10 -2z"/>
<path d="M2780 1784 c0 -9 -14 -11 -112 -17 -21 -1 -38 -5 -38 -8 0 -3 -6 -6
-14 -6 -14 0 -99 -21 -126 -31 -8 -3 -21 -4 -27 -3 -7 1 -13 -3 -13 -9 0 -5
-13 -10 -30 -10 -16 0 -30 -4 -30 -9 0 -5 -11 -8 -24 -7 -18 2 -23 -1 -18 -12
4 -11 1 -14 -11 -9 -9 3 -17 3 -17 -1 0 -4 -20 -16 -45 -26 -25 -11 -45 -23
-45 -28 0 -4 -9 -8 -20 -8 -11 0 -20 -5 -20 -11 0 -5 -4 -7 -10 -4 -5 3 -10 1
-10 -4 0 -6 -4 -11 -10 -11 -9 0 -36 -19 -66 -48 -8 -8 -21 -11 -29 -8 -9 3
-12 0 -8 -10 3 -8 -1 -14 -10 -14 -8 0 -18 -7 -21 -16 -3 -9 -13 -14 -21 -11
-10 4 -12 1 -8 -11 3 -9 3 -14 -2 -10 -4 4 -13 2 -21 -5 -7 -7 -21 -18 -29
-26 -9 -7 -13 -16 -9 -20 4 -3 9 0 11 7 3 6 13 12 23 12 10 0 20 4 22 8 5 13
271 138 308 146 8 2 26 8 40 13 14 6 28 9 33 6 4 -2 7 0 7 5 0 4 12 9 28 10
31 2 77 9 77 12 0 2 11 3 25 4 14 1 31 6 39 10 10 6 12 5 7 -2 -8 -13 6 -16
18 -4 12 12 30 9 44 -8 11 -13 11 -13 7 1 -4 10 0 16 10 16 10 0 14 -6 10 -15
-5 -13 -3 -13 11 -1 22 18 63 23 79 9 10 -8 15 -8 20 0 4 7 11 8 18 2 7 -5 30
-13 52 -17 45 -9 50 -10 88 -20 32 -9 33 -5 8 37 -11 17 -18 35 -15 39 3 5 -4
27 -16 51 -11 23 -20 48 -20 55 0 7 -3 13 -7 14 -5 0 -16 2 -25 4 -10 2 -21
-1 -24 -6 -3 -6 -11 -5 -20 2 -8 6 -14 7 -14 3z"/>
<path d="M2372 1714 c-7 -8 -8 -14 -3 -14 10 0 25 19 20 25 -2 1 -10 -3 -17
-11z"/>
<path d="M1450 1678 c0 -4 4 -8 9 -8 6 0 12 4 15 8 3 5 -1 9 -9 9 -8 0 -15 -4
-15 -9z"/>
<path d="M2940 1656 c0 -15 -4 -25 -10 -21 -6 3 -7 -1 -4 -9 3 -9 10 -16 14
-16 4 0 10 -11 12 -25 5 -22 2 -24 -19 -20 l-25 4 6 -72 c4 -40 7 -88 8 -107
1 -19 3 -29 6 -21 3 9 10 6 26 -12 17 -19 30 -25 64 -24 23 0 42 4 42 8 0 6
32 17 53 19 4 0 16 8 26 18 40 37 71 60 71 54 0 -4 9 7 20 23 11 17 20 26 20
20 0 -5 7 3 15 19 8 15 15 30 15 32 0 11 -88 1 -104 -11 -11 -8 -28 -15 -39
-15 -11 0 -15 -4 -11 -12 5 -8 2 -9 -9 -5 -12 4 -17 1 -17 -10 0 -9 -3 -14 -6
-10 -6 6 -60 -30 -92 -60 -7 -7 -19 -13 -25 -13 -8 0 -8 3 -2 8 6 4 11 14 13
22 9 41 2 170 -9 170 -4 0 -6 9 -4 20 2 11 0 20 -5 20 -5 0 -7 6 -4 13 3 8 -2
20 -11 27 -13 11 -15 9 -15 -14z"/>
<path d="M1490 1660 c0 -5 5 -10 11 -10 5 0 7 5 4 10 -3 6 -8 10 -11 10 -2 0
-4 -4 -4 -10z"/>
<path d="M2586 1609 c4 -14 -2 -16 -45 -15 -28 2 -56 -1 -63 -6 -8 -6 -4 -7
12 -2 23 6 24 6 10 -11 -14 -17 -13 -18 2 -12 13 4 16 2 11 -11 -3 -9 -3 -14
2 -10 4 4 25 -11 46 -33 22 -22 39 -38 39 -35 0 3 17 -11 37 -31 21 -19 54
-47 75 -61 21 -13 38 -28 38 -33 0 -4 9 -11 20 -14 11 -4 18 -11 15 -16 -4 -5
-1 -9 6 -9 6 0 18 -8 26 -17 9 -11 12 -12 7 -3 -3 8 8 1 27 -17 18 -18 30 -35
27 -39 -10 -9 -49 6 -42 17 3 5 10 6 16 3 7 -4 8 -2 4 4 -4 6 -13 9 -20 6 -7
-3 -20 2 -29 11 -18 18 -26 10 -23 -25 1 -14 -2 -30 -7 -37 -12 -16 8 -49 33
-56 11 -3 20 -2 20 2 0 4 18 6 40 5 50 -2 58 8 24 35 -22 17 -24 22 -11 27 22
8 40 -5 32 -23 -5 -13 -3 -14 10 -3 9 7 15 9 14 4 -3 -18 1 -34 9 -33 19 3 33
-2 27 -11 -3 -5 1 -10 10 -10 9 0 14 -4 11 -8 -3 -5 8 -16 25 -26 16 -9 29
-22 29 -27 0 -6 5 -7 10 -4 6 3 10 -1 10 -9 0 -9 7 -16 15 -16 9 0 18 -7 21
-15 4 -8 13 -15 22 -15 8 0 12 -3 9 -7 -6 -5 29 -37 41 -38 2 0 26 -21 54 -47
27 -27 56 -48 64 -48 8 0 14 -5 14 -10 0 -6 13 -8 32 -5 40 7 42 9 26 26 -7 8
-25 29 -41 47 -15 19 -27 31 -27 27 0 -4 -7 0 -15 9 -8 8 -15 17 -15 19 0 11
-89 94 -95 89 -3 -3 -5 0 -5 6 0 18 -32 52 -49 52 -8 0 -12 3 -8 6 8 8 -34 54
-50 54 -7 0 -13 7 -13 16 0 11 -5 14 -17 10 -10 -4 -15 -4 -11 -1 8 9 -23 45
-34 39 -4 -3 -5 3 -1 12 5 13 2 16 -9 12 -8 -4 -21 -2 -29 4 -11 8 -10 9 4 4
9 -3 17 -1 17 4 0 6 -5 10 -11 10 -5 0 -8 4 -5 9 3 4 -5 7 -19 6 -18 -2 -22 1
-18 13 4 10 2 13 -5 8 -8 -5 -10 -1 -5 10 5 13 2 16 -9 11 -11 -4 -14 -1 -11
12 3 11 -5 22 -21 30 -14 8 -23 18 -21 22 3 4 -4 10 -15 14 -11 3 -20 11 -20
16 0 6 -24 32 -52 59 -78 73 -88 81 -88 72 0 -15 -64 -8 -78 8 -10 13 -11 13
-6 -1z"/>
<path d="M917 1571 c-28 -18 -52 -40 -29 -27 6 4 12 2 12 -3 0 -6 -4 -11 -9
-11 -4 0 -6 -17 -4 -37 6 -58 8 -67 16 -80 4 -6 3 -14 -3 -18 -5 -3 -10 -1
-10 4 0 6 -5 11 -12 11 -6 0 -22 10 -34 21 -24 23 -45 36 -104 66 -19 10 -37
21 -40 24 -3 3 -29 7 -58 8 -42 2 -52 -1 -46 -11 19 -30 92 -107 97 -102 2 2
16 -7 31 -21 15 -14 32 -25 39 -25 7 0 21 -7 31 -15 10 -8 23 -12 27 -9 5 3 9
1 9 -4 0 -13 81 -13 107 0 12 6 19 16 16 23 -2 8 1 23 7 35 10 18 10 21 -2 14
-11 -6 -11 -5 0 8 7 9 14 45 15 82 1 41 5 63 12 60 5 -3 1 2 -9 10 -24 19 -24
19 -59 -3z"/>
<path d="M1209 1528 c-29 -32 -59 -68 -66 -80 -7 -13 -12 -19 -13 -15 0 4 -6
2 -14 -5 -8 -7 -11 -17 -6 -22 10 -10 2 -36 -12 -36 -5 0 -7 4 -3 9 3 5 1 12
-4 16 -6 3 -8 12 -4 20 3 8 0 15 -6 15 -6 0 -11 12 -11 26 0 14 -4 23 -10 19
-5 -3 -10 -1 -10 5 0 6 -7 18 -15 26 -16 16 -16 18 -19 -78 0 -16 -5 -28 -10
-28 -4 0 -3 -7 4 -15 9 -10 9 -15 1 -15 -6 0 -11 -5 -11 -11 0 -5 4 -8 10 -4
5 3 8 -5 8 -17 -2 -29 12 -78 21 -78 4 0 8 -6 8 -14 0 -10 -7 -9 -31 5 -17 10
-43 20 -58 23 -15 2 -32 7 -38 11 -13 8 -76 18 -127 19 -24 0 -43 6 -43 11 0
6 -4 4 -9 -4 -9 -14 28 -61 48 -61 5 0 11 -3 13 -7 5 -13 122 -69 138 -68 8 1
20 -3 27 -8 7 -5 17 -6 23 -2 6 4 17 2 25 -5 9 -8 15 -8 20 0 3 6 11 8 16 4 6
-3 21 -3 34 0 20 5 24 11 21 36 -3 23 3 35 22 50 20 16 22 23 12 35 -6 8 -9
19 -6 24 4 6 -2 8 -15 6 -12 -2 -19 -2 -16 2 4 3 2 13 -3 22 -7 14 -3 17 20
16 15 0 26 -4 23 -8 -3 -5 -12 -6 -20 -3 -9 4 -13 1 -10 -6 2 -7 11 -12 21
-10 9 2 16 -4 16 -13 0 -10 5 -13 13 -9 9 6 9 4 -1 -8 -9 -11 -10 -18 -2 -23
5 -3 10 -19 10 -36 0 -16 4 -29 8 -29 4 0 9 -11 10 -25 1 -14 11 -43 22 -65
23 -45 23 -46 -27 -25 -20 9 -53 17 -73 19 -20 1 -41 5 -46 8 -5 3 -19 4 -31
3 -14 -1 -23 4 -23 12 0 7 -8 13 -17 13 -14 0 -15 -2 -5 -9 11 -7 10 -9 -3
-14 -9 -4 -13 -3 -10 3 10 16 -12 11 -31 -7 -16 -16 -16 -16 -9 6 5 17 4 21
-5 16 -6 -4 -17 1 -25 11 -12 16 -16 17 -27 5 -7 -8 -8 -11 -2 -8 6 3 11 0 11
-8 0 -8 -5 -11 -10 -8 -5 3 -33 -20 -63 -51 -29 -31 -51 -56 -49 -56 3 0 -14
-18 -36 -40 -23 -22 -39 -40 -36 -40 3 0 -11 -17 -31 -37 -40 -41 -53 -92 -23
-94 24 -2 45 2 51 10 3 3 20 19 38 34 19 15 30 27 26 27 -3 0 6 10 22 22 16
12 33 28 37 35 5 8 12 11 18 8 5 -4 9 -2 9 3 0 4 22 32 50 61 l49 52 36 -15
c19 -8 35 -12 35 -8 0 4 4 1 9 -6 4 -7 22 -14 39 -14 18 -1 32 -4 32 -8 0 -4
33 -6 73 -4 39 1 72 3 72 4 0 1 11 4 25 6 30 6 40 21 31 48 -5 12 -7 31 -6 44
1 12 -1 22 -4 22 -3 0 -7 15 -8 33 -3 34 -16 77 -48 152 -11 25 -12 35 -4 28
10 -10 32 7 110 86 54 54 101 96 106 92 4 -3 2 2 -6 11 -7 9 -19 14 -27 11 -8
-3 -14 1 -14 8 0 11 -3 11 -10 -1 -8 -13 -10 -12 -10 3 0 19 -15 23 -26 5 -5
-7 -3 -8 6 -3 9 5 11 4 6 -4 -4 -6 -12 -9 -17 -5 -5 3 -6 10 -3 16 5 7 1 9 -9
5 -10 -3 -17 -3 -17 1 0 4 -11 7 -24 7 -17 0 -41 -18 -77 -57z m206 12 c-3 -5
-12 -10 -18 -10 -7 0 -6 4 3 10 19 12 23 12 15 0z m-286 -276 c-6 -8 -17 -14
-23 -13 -8 0 -8 2 0 5 7 3 9 15 6 27 -5 20 -4 21 11 8 13 -10 15 -17 6 -27z"/>
<path d="M2842 1496 c-9 -19 -8 -25 4 -30 21 -8 29 -6 25 8 -2 6 -4 16 -5 23
-4 23 -13 23 -24 -1z"/>
<path d="M3029 1514 c0 -5 -2 -16 -4 -26 -2 -9 5 -18 14 -21 21 -5 25 27 5 44
-8 6 -14 8 -15 3z"/>
<path d="M822 1492 c3 -16 38 -26 38 -11 0 5 0 12 0 17 0 4 -9 8 -20 8 -14 1
-20 -4 -18 -14z"/>
<path d="M1762 1421 c-10 -6 -7 -10 12 -13 30 -6 45 7 20 16 -19 7 -16 8 -32
-3z"/>
<path d="M2680 1331 c-11 -14 -25 -32 -30 -38 -6 -7 -9 -13 -6 -13 3 0 -1 -18
-9 -40 -14 -39 -27 -118 -27 -153 1 -11 -4 -15 -11 -10 -9 5 -8 2 0 -9 7 -8
10 -17 7 -21 -8 -8 35 -29 46 -22 6 3 10 2 10 -2 0 -5 35 -8 78 -6 95 3 102 4
102 14 0 5 7 6 15 3 8 -4 15 -1 15 5 0 7 6 11 13 9 18 -4 99 44 89 54 -4 4
-20 9 -35 10 -15 1 -27 6 -27 11 0 5 -8 3 -17 -4 -9 -8 -14 -9 -10 -3 9 16
-18 25 -32 11 -6 -6 -11 -7 -11 -2 0 6 -5 3 -10 -5 -7 -11 -10 -11 -10 -2 0 8
-5 10 -12 5 -7 -4 -23 -9 -36 -11 -12 -1 -35 -8 -50 -14 -15 -6 -36 -13 -47
-15 -16 -2 -17 -1 -5 7 8 5 12 10 7 10 -4 0 0 11 9 25 9 14 13 25 10 25 -4 0
-3 8 3 18 10 19 21 85 26 148 3 48 -16 55 -45 15z"/>
<path d="M3045 1310 c-3 -6 -10 -8 -14 -6 -4 3 -8 -4 -8 -15 -1 -10 4 -19 10
-19 7 0 18 -10 26 -21 7 -12 16 -18 20 -13 3 5 15 14 25 20 31 17 44 43 26 54
-9 6 -17 5 -22 -3 -6 -9 -8 -8 -8 3 0 13 -2 13 -9 1 -8 -12 -12 -12 -24 -2
-11 8 -17 9 -22 1z"/>
<path d="M1325 1210 c3 -19 6 -44 8 -55 1 -11 8 -26 15 -33 7 -8 10 -18 7 -23
-4 -5 -1 -9 4 -9 6 0 11 -9 11 -20 0 -11 5 -20 10 -20 6 0 10 -7 10 -15 0 -7
8 -19 18 -24 9 -6 13 -11 7 -11 -5 0 -3 -5 5 -10 12 -7 12 -12 2 -22 -9 -9
-12 -9 -12 1 0 7 -4 9 -10 6 -5 -3 -10 -2 -10 3 0 15 -202 8 -230 -8 -14 -8
-29 -14 -35 -15 -5 0 -10 -7 -10 -15 0 -8 5 -15 10 -15 6 0 16 -4 23 -8 6 -5
12 -6 12 -2 0 3 9 1 19 -5 29 -15 171 -32 171 -20 0 3 16 5 35 5 19 -1 35 3
35 8 0 6 3 8 6 4 4 -3 19 0 33 8 33 16 59 45 42 45 -6 0 -11 9 -11 19 0 11 -9
40 -19 64 -11 25 -17 48 -14 51 4 3 2 6 -4 6 -11 0 -38 50 -34 63 1 5 -3 6 -8
3 -5 -4 -13 3 -16 15 -4 11 -9 18 -13 15 -3 -3 -12 3 -19 14 -8 11 -18 18 -23
15 -4 -3 -11 1 -14 7 -3 7 -3 -3 -1 -22z"/>
<path d="M2550 1218 c0 -6 -3 -9 -6 -5 -7 7 -54 -38 -54 -53 0 -5 -4 -10 -10
-10 -5 0 -10 -7 -10 -15 0 -8 -5 -15 -11 -15 -5 0 -8 -4 -4 -9 3 -5 1 -12 -5
-16 -5 -3 -10 -15 -10 -26 0 -10 -4 -19 -10 -19 -5 0 -10 -11 -10 -25 0 -14
-4 -25 -8 -25 -4 0 -8 -8 -8 -17 -1 -10 -4 -25 -8 -33 -6 -15 32 -40 61 -40 7
0 13 -4 13 -8 0 -4 10 -9 23 -9 12 -1 33 -5 45 -8 17 -4 22 -2 16 6 -5 8 -3 9
6 4 23 -14 100 -7 155 15 17 6 31 11 33 11 17 -5 30 2 26 14 -4 8 -12 15 -20
15 -8 0 -14 5 -14 10 0 6 -7 10 -15 10 -8 0 -15 3 -15 8 0 4 -27 7 -59 7 -34
0 -57 3 -54 9 4 5 0 6 -8 0 -8 -4 -29 -9 -47 -11 -18 -1 -40 -7 -50 -12 -11
-6 -24 -6 -33 0 -9 5 -10 9 -2 9 7 0 26 20 43 45 17 25 28 45 23 45 -4 0 -2 5
5 12 7 7 12 20 12 31 0 12 4 16 13 11 6 -4 9 -4 5 0 -3 4 0 29 8 54 7 26 14
48 14 50 0 1 -7 2 -15 2 -8 0 -15 -5 -15 -12z"/>
<path d="M1126 1164 c-16 -11 -16 -13 1 -18 30 -10 38 -7 39 12 1 22 -16 24
-40 6z"/>
<path d="M2727 1160 c-7 -26 9 -35 28 -16 17 17 20 30 5 21 -5 -3 -10 -1 -10
4 0 19 -17 12 -23 -9z"/>
<path d="M916 1158 c3 -5 9 -7 12 -4 3 3 11 1 18 -5 8 -7 14 -7 19 1 7 12 8
11 -27 14 -15 2 -25 -1 -22 -6z"/>
<path d="M1505 1128 c-3 -8 0 -28 6 -44 7 -16 11 -33 10 -37 -1 -4 4 -14 11
-22 7 -7 26 -32 42 -54 17 -23 36 -41 43 -41 7 0 13 -4 13 -10 0 -5 7 -10 15
-10 8 0 15 -4 15 -8 0 -5 -18 -8 -40 -8 -22 1 -40 -3 -40 -7 0 -5 -7 -4 -15 3
-8 7 -15 8 -15 3 0 -5 -14 -8 -30 -7 -17 1 -32 -2 -35 -7 -3 -4 -11 -6 -19 -3
-17 6 -106 -32 -106 -46 0 -6 -4 -9 -9 -5 -5 3 -12 1 -15 -4 -4 -5 -1 -13 6
-18 15 -9 228 -11 228 -2 0 6 58 23 73 20 4 0 7 4 7 9 0 6 7 10 15 10 8 0 15
5 15 11 0 5 4 8 9 4 6 -3 15 3 20 14 11 20 5 51 -10 51 -4 0 -6 7 -3 15 4 8 1
15 -6 15 -6 0 -9 4 -5 9 3 5 -3 16 -13 23 -11 7 -19 17 -19 22 0 12 -86 106
-97 106 -5 0 -18 7 -28 16 -15 14 -18 15 -23 2z"/>
<path d="M2353 1111 c-12 -11 -23 -18 -25 -15 -3 2 -16 -10 -29 -27 -13 -18
-34 -43 -46 -58 -13 -14 -23 -30 -23 -36 0 -5 -9 -21 -20 -35 -21 -27 -27 -70
-9 -70 5 0 8 -4 5 -8 -2 -4 7 -13 22 -19 98 -43 122 -50 170 -49 28 1 52 -3
52 -9 0 -6 3 -6 8 0 4 6 24 10 45 10 52 -1 65 17 30 41 -16 10 -31 17 -35 16
-5 -1 -8 2 -8 6 0 4 -8 9 -17 10 -18 2 -54 9 -63 12 -3 1 -13 2 -22 1 -10 -1
-18 2 -18 6 0 5 -9 9 -20 9 -11 0 -20 -5 -20 -11 0 -5 -5 -3 -10 5 -8 13 -10
13 -10 0 0 -11 -3 -11 -12 -2 -15 15 -32 16 -23 1 4 -6 -2 -5 -13 2 -20 13
-20 13 10 28 16 8 35 25 41 38 5 12 19 25 29 29 11 3 17 12 14 20 -3 7 -1 16
5 20 11 6 22 32 33 77 8 33 -10 36 -41 8z"/>
<path d="M1698 1051 c8 -4 12 -10 11 -12 -6 -7 58 -93 87 -119 16 -14 44 -34
63 -46 34 -22 28 -33 -16 -29 -13 1 -23 -1 -23 -5 0 -3 -13 -7 -29 -8 -52 -4
-191 -80 -191 -104 0 -5 5 -6 10 -3 6 3 10 1 10 -6 0 -7 4 -8 13 -2 6 5 32 11
56 12 24 2 51 6 60 10 93 44 139 69 154 84 23 23 37 13 33 -24 -2 -20 1 -32
11 -36 20 -8 35 16 28 45 -4 18 -2 22 12 20 10 -2 26 -12 35 -23 10 -11 17
-16 18 -11 0 5 11 -1 25 -14 14 -13 25 -21 25 -17 0 4 16 -2 36 -13 19 -11 32
-15 28 -8 -6 10 -5 10 7 1 8 -7 32 -13 52 -15 20 -1 37 -6 37 -11 0 -5 8 -3
17 4 9 8 14 9 10 3 -3 -6 0 -11 8 -11 8 0 15 4 15 9 0 15 -66 71 -91 76 -7 2
-17 8 -20 14 -3 5 -10 9 -15 8 -5 0 -30 4 -55 10 -48 12 -78 18 -92 19 -5 1
-5 6 -2 12 4 6 9 8 12 5 6 -5 14 1 78 59 25 23 45 46 45 53 0 7 4 12 9 12 12
0 41 57 33 64 -3 3 -11 1 -19 -5 -7 -6 -13 -8 -13 -4 0 4 -7 2 -15 -5 -8 -7
-15 -10 -15 -6 0 18 -116 -97 -136 -135 -14 -29 -34 -39 -34 -18 0 5 5 7 10 4
6 -3 10 -1 10 4 0 6 -4 11 -10 11 -5 0 -10 6 -10 14 0 8 -8 13 -17 12 -12 -2
-18 -11 -17 -29 1 -30 -13 -36 -23 -9 -8 19 -15 29 -60 77 -17 18 -34 31 -37
28 -3 -4 -6 1 -6 11 0 9 -4 14 -10 11 -5 -3 -10 -2 -10 3 0 8 -24 20 -52 26
-3 0 -10 4 -14 9 -4 4 -14 7 -23 7 -13 0 -13 -2 -3 -9z"/>
<path d="M1535 960 c-4 -6 -3 -10 2 -10 4 0 1 -5 -7 -10 -8 -5 -10 -10 -5 -11
6 0 17 -2 25 -4 20 -3 24 31 5 39 -8 3 -17 1 -20 -4z"/>
<path d="M2330 948 c0 -10 5 -18 10 -18 6 0 13 0 18 0 4 0 7 8 8 18 1 11 -6
18 -17 18 -12 0 -19 -7 -19 -18z"/>
<path d="M3615 742 c-8 -20 -6 -22 11 -15 14 5 15 -1 9 -45 -6 -44 -4 -52 9
-52 15 0 22 17 30 70 2 17 10 26 25 28 21 3 22 1 15 -47 -5 -42 -4 -51 9 -51
8 0 20 12 25 28 l10 27 1 -27 c1 -21 6 -28 21 -28 11 0 20 4 20 8 0 5 6 17 14
27 13 18 14 18 9 -8 -4 -20 -1 -27 10 -27 9 0 18 8 20 18 11 39 18 93 12 101
-10 17 -41 0 -54 -30 -16 -37 -25 -37 -37 4 -9 32 -14 34 -48 21 -11 -4 -17
-4 -14 2 4 5 -15 9 -43 9 -32 0 -50 -4 -54 -13z"/>
<path d="M225 487 c-88 -28 -140 -141 -103 -222 23 -51 103 -70 171 -41 34 14
91 72 83 85 -8 13 -72 5 -96 -12 -46 -32 -90 -11 -90 42 0 62 76 107 110 66 7
-9 29 -15 51 -15 33 0 39 3 39 21 0 25 -51 78 -77 80 -10 1 -27 3 -38 4 -11 1
-33 -2 -50 -8z"/>
<path d="M434 488 c-2 -3 10 -44 27 -90 25 -69 30 -92 25 -135 l-6 -53 39 0
c38 0 39 1 46 43 5 28 29 74 71 136 35 52 62 96 60 98 -2 2 -20 5 -40 7 -35 2
-39 0 -68 -50 -18 -29 -35 -51 -39 -49 -3 3 -12 25 -18 50 -6 25 -15 45 -19
46 -39 4 -75 3 -78 -3z"/>
<path d="M733 486 c-5 -8 -53 -250 -53 -268 0 -5 39 -8 88 -8 102 0 146 19
157 69 7 31 -8 71 -26 71 -6 0 1 10 14 23 35 32 42 72 17 97 -11 11 -28 20
-37 21 -95 4 -156 2 -160 -5z m125 -78 c-2 -18 -11 -24 -35 -26 -18 -2 -33 1
-33 7 0 27 14 41 42 41 25 0 29 -4 26 -22z m-10 -92 c13 -14 -16 -41 -46 -42
-34 -1 -35 0 -26 32 4 17 12 21 35 19 17 -1 33 -6 37 -9z"/>
<path d="M986 415 c-8 -44 -17 -91 -20 -105 -2 -14 -7 -42 -11 -62 l-7 -38 91
0 c89 0 91 1 97 25 8 34 3 38 -47 38 -27 0 -43 5 -47 15 -8 22 24 40 62 35 30
-4 34 -1 40 23 9 34 3 39 -42 39 -30 0 -37 4 -37 20 0 17 8 20 51 23 44 2 53
6 58 25 11 41 8 42 -83 42 l-89 0 -16 -80z"/>
<path d="M1225 484 c-6 -7 -19 -61 -29 -120 -9 -60 -20 -119 -23 -131 -5 -21
-2 -23 35 -23 41 0 41 0 48 45 3 25 10 47 14 50 5 3 16 -17 25 -45 17 -50 17
-50 61 -50 l44 0 -20 51 -21 51 37 32 c30 26 36 38 36 71 0 43 -27 74 -66 76
-103 4 -131 2 -141 -7z m120 -84 c0 -21 -5 -26 -32 -28 -24 -2 -33 1 -33 12 0
33 13 47 39 44 20 -2 26 -8 26 -28z"/>
<path d="M1540 461 c0 -14 5 -44 9 -66 5 -22 12 -62 16 -90 10 -84 11 -85 63
-85 l47 0 64 124 c35 69 62 128 60 133 -2 4 -17 8 -34 8 -28 0 -34 -7 -76 -89
-25 -49 -49 -85 -52 -80 -3 5 -9 42 -12 82 -8 78 -12 83 -56 87 -25 2 -29 -1
-29 -24z"/>
<path d="M1842 481 c-8 -5 -52 -216 -52 -248 0 -8 14 -13 34 -13 34 0 35 1 45
53 17 85 39 207 37 208 -6 5 -57 5 -64 0z"/>
<path d="M1968 482 c-21 -4 -23 -12 -43 -132 -9 -52 -19 -103 -22 -114 -5 -17
1 -18 80 -15 67 3 92 8 113 25 46 34 67 70 72 123 4 46 2 53 -26 81 -17 16
-41 30 -54 31 -13 1 -41 2 -63 3 -22 1 -48 0 -57 -2z m118 -91 c17 -33 -1 -78
-36 -96 -43 -22 -62 -10 -55 34 13 90 14 92 48 89 21 -2 35 -11 43 -27z"/>
<path d="M2210 475 c0 -6 12 -45 26 -86 30 -85 29 -82 20 -132 l-7 -38 37 3
c35 3 38 6 48 48 7 25 38 82 69 127 32 45 54 83 50 85 -4 2 -23 4 -41 3 -27
-1 -37 -9 -63 -51 l-32 -49 -14 48 c-7 26 -17 47 -21 48 -39 6 -72 3 -72 -6z"/>
<path d="M2565 475 c-7 -5 -42 -65 -78 -132 l-65 -123 38 0 c27 0 41 6 51 20
24 35 109 31 109 -5 0 -11 12 -15 40 -15 37 0 40 2 35 22 -2 13 -14 70 -25
127 -11 58 -23 107 -26 110 -9 10 -66 7 -79 -4z m37 -120 c4 -33 2 -35 -24
-35 l-28 0 18 35 c22 44 29 44 34 0z"/>
<path d="M2788 482 c-20 -4 -23 -11 -43 -127 -8 -49 -18 -100 -21 -112 -6 -21
-3 -23 34 -23 39 0 40 0 46 45 7 43 8 45 42 45 93 0 154 100 94 155 -17 15
-111 26 -152 17z m91 -66 c18 -21 2 -46 -29 -46 -24 0 -28 4 -25 22 7 35 35
47 54 24z"/>
<path d="M3010 475 c-6 -8 -50 -225 -50 -248 0 -4 38 -7 84 -7 78 0 84 1 90
23 9 36 8 37 -44 37 -47 0 -49 1 -41 23 6 15 17 22 37 23 50 2 52 3 56 29 4
18 1 25 -11 26 -61 4 -61 4 -61 32 0 10 14 13 48 13 44 -1 47 1 50 27 2 15 0
27 -5 28 -45 6 -146 2 -153 -6z"/>
<path d="M3215 479 c-2 -3 -9 -32 -14 -65 -6 -32 -15 -86 -21 -119 -5 -33 -10
-63 -10 -67 0 -5 38 -8 84 -8 81 0 84 1 88 25 7 32 3 35 -49 35 -23 0 -43 3
-43 8 1 19 22 37 47 38 15 1 34 2 41 3 6 0 12 12 12 26 0 25 -9 29 -57 25 -13
-1 -23 4 -23 12 0 24 15 33 50 33 51 -1 60 4 60 34 l0 27 -81 -1 c-44 0 -83
-3 -84 -6z"/>
<path d="M3404 481 c-2 -2 -4 -16 -4 -31 0 -23 4 -27 25 -25 14 2 27 -1 30 -5
3 -5 -1 -48 -10 -96 -19 -111 -20 -104 19 -104 31 0 34 3 44 43 6 23 14 68 17
99 7 55 20 73 48 63 18 -7 35 7 42 35 l6 25 -106 0 c-58 0 -108 -1 -111 -4z"/>
<path d="M3659 482 c-12 -2 -21 -33 -37 -122 -12 -65 -22 -123 -22 -129 0 -6
15 -11 34 -11 37 0 39 3 50 71 6 35 8 36 49 35 23 -1 41 -6 40 -12 -1 -5 -4
-29 -7 -52 l-4 -43 36 3 37 3 22 120 c12 66 20 125 18 131 -4 12 -50 13 -62 0
-4 -4 -12 -26 -18 -49 -10 -39 -11 -41 -52 -42 l-43 -1 6 40 c4 23 7 45 8 50
1 9 -29 14 -55 8z"/>
</g>
</svg>
